<svg xmlns="http://www.w3.org/2000/svg" viewBox="0 0 512 512" width="100%" height="100%">
  <defs>
    <linearGradient id="bgGrad" x1="0%" y1="0%" x2="100%" y2="100%">
      <stop offset="0%" stop-color="#14141e"/>
      <stop offset="50%" stop-color="#0b0b12"/>
      <stop offset="100%" stop-color="#050508"/>
    </linearGradient>
    <linearGradient id="borderGrad" x1="0%" y1="0%" x2="100%" y2="100%">
      <stop offset="0%" stop-color="#d7ccc8"/>
      <stop offset="50%" stop-color="#a1887f"/>
      <stop offset="100%" stop-color="#5d4037"/>
    </linearGradient>
    <radialGradient id="glowGrad" cx="50%" cy="45%" r="55%">
      <stop offset="0%" stop-color="#a1887f" stop-opacity="0.38"/>
      <stop offset="60%" stop-color="#a1887f" stop-opacity="0.08"/>
      <stop offset="100%" stop-color="#a1887f" stop-opacity="0"/>
    </radialGradient>
    <filter id="neonGlow" x="-20%" y="-20%" width="140%" height="140%">
      <feGaussianBlur stdDeviation="6" result="blur"/>
      <feMerge>
        <feMergeNode in="blur"/>
        <feMergeNode in="SourceGraphic"/>
      </feMerge>
    </filter>
    <filter id="shadow" x="-10%" y="-10%" width="120%" height="120%">
      <feDropShadow dx="0" dy="8" stdDeviation="10" flood-color="#000" flood-opacity="0.75"/>
    </filter>
    
  </defs>

  <!-- Background -->
  <rect x="0" y="0" width="512" height="512" rx="32" fill="url(#bgGrad)"/>
  <circle cx="256" cy="230" r="180" fill="url(#glowGrad)"/>

  <!-- Subtle Cyber Grid -->
  <g opacity="0.12" stroke="#a1887f" stroke-width="1">
    <line x1="60" y1="120" x2="452" y2="120"/>
    <line x1="60" y1="200" x2="452" y2="200"/>
    <line x1="60" y1="280" x2="452" y2="280"/>
    <line x1="60" y1="360" x2="452" y2="360"/>
    <line x1="140" y1="60" x2="140" y2="420"/>
    <line x1="256" y1="60" x2="256" y2="420"/>
    <line x1="372" y1="60" x2="372" y2="420"/>
  </g>

  <!-- Character Illustration -->
  <g filter="url(#shadow)">
    
      <!-- Matvey Chess Master Tactician -->
      <!-- Holographic Chess Knight (♞) Aura -->
      <g transform="translate(100, 160)" fill="#d7ccc8" filter="url(#neonGlow)">
        <text font-family="'Segoe UI Symbol', sans-serif" font-size="64" opacity="0.85">♞</text>
      </g>
      <!-- Chessboard Grid Lines Aura -->
      <g stroke="#d7ccc8" stroke-width="1.5" opacity="0.3">
        <line x1="370" y1="140" x2="430" y2="140"/>
        <line x1="370" y1="165" x2="430" y2="165"/>
        <line x1="370" y1="190" x2="430" y2="190"/>
        <line x1="390" y1="120" x2="390" y2="210"/>
        <line x1="410" y1="120" x2="410" y2="210"/>
      </g>

      <!-- Trenchcoat / Vest Suit Body -->
      <path d="M 120 400 L 150 280 L 210 268 L 256 295 L 302 268 L 362 280 L 392 400 Z" fill="#2b2b33"/>
      <!-- Brown Tweed Vest -->
      <path d="M 175 275 L 220 270 L 256 380 L 165 380 Z" fill="#5d4037" stroke="#a1887f" stroke-width="2"/>
      <path d="M 337 275 L 292 270 L 256 380 L 347 380 Z" fill="#5d4037" stroke="#a1887f" stroke-width="2"/>
      <!-- Crisp White Shirt & Tie -->
      <polygon points="256,270 270,300 256,380 242,300" fill="#ffffff"/>
      <polygon points="256,285 264,300 256,350 248,300" fill="#a1887f"/>

      <!-- Face -->
      <ellipse cx="256" cy="185" rx="50" ry="56" fill="#f3d5b5"/>

      <!-- Stylish Parted Hair -->
      <path d="M 198 160 C 198 100 270 95 314 125 C 314 165 295 130 256 125 C 220 120 200 145 198 160 Z" fill="#4e342e"/>

      <!-- Intellectual Glasses with Golden Glow Glint -->
      <rect x="208" y="170" width="38" height="24" rx="4" fill="none" stroke="#d7ccc8" stroke-width="3"/>
      <rect x="266" y="170" width="38" height="24" rx="4" fill="none" stroke="#d7ccc8" stroke-width="3"/>
      <line x1="246" y1="180" x2="266" y2="180" stroke="#d7ccc8" stroke-width="3"/>
      <!-- Glass Lens Reflection -->
      <line x1="214" y1="174" x2="238" y2="190" stroke="#ffffff" stroke-width="2" opacity="0.8"/>
      <line x1="272" y1="174" x2="296" y2="190" stroke="#ffffff" stroke-width="2" opacity="0.8"/>

      <!-- Calculating Eyes Behind Glasses -->
      <circle cx="227" cy="182" r="4.5" fill="#3e2723"/>
      <circle cx="285" cy="182" r="4.5" fill="#3e2723"/>

      <!-- Smug Strategic Smile -->
      <path d="M 242 222 Q 256 230 274 220" fill="none" stroke="#3e2723" stroke-width="3" stroke-linecap="round"/>
    
  </g>

  <!-- Arcade Tech Frame -->
  <rect x="18" y="18" width="476" height="476" rx="24" fill="none" stroke="#5d4037" stroke-width="3" opacity="0.6"/>
  <rect x="24" y="24" width="464" height="464" rx="20" fill="none" stroke="url(#borderGrad)" stroke-width="3.5"/>

  <!-- Corner Tech Brackets -->
  <g stroke="#d7ccc8" stroke-width="4" fill="none" filter="url(#neonGlow)">
    <path d="M 28 64 L 28 32 L 64 32"/>
    <path d="M 448 32 L 484 32 L 484 64"/>
    <path d="M 28 448 L 28 480 L 64 480"/>
    <path d="M 448 480 L 484 480 L 484 448"/>
  </g>

  <!-- Tech Dots / Accents -->
  <circle cx="36" cy="36" r="3" fill="#d7ccc8"/>
  <circle cx="476" cy="36" r="3" fill="#d7ccc8"/>
  <circle cx="36" cy="476" r="3" fill="#d7ccc8"/>
  <circle cx="476" cy="476" r="3" fill="#d7ccc8"/>

  <!-- Bottom Name Banner -->
  <g transform="translate(256, 436)" filter="url(#shadow)">
    <!-- Banner Plate -->
    <path d="M -160 -24 L 160 -24 L 140 22 L -140 22 Z" fill="#0c0c16" stroke="#a1887f" stroke-width="2.5"/>
    <path d="M -152 -20 L 152 -20 L 134 18 L -134 18 Z" fill="none" stroke="#d7ccc8" stroke-width="1" opacity="0.4"/>
    <!-- Hero Name -->
    <text x="0" y="-1" text-anchor="middle" font-family="'Russo One', 'Impact', sans-serif" font-size="24" font-weight="900" fill="#ffffff" letter-spacing="2">
      MATVEY
    </text>
    <!-- Archetype / Style Subtitle -->
    <text x="0" y="15" text-anchor="middle" font-family="'Exo 2', 'Arial', sans-serif" font-size="11" font-weight="800" fill="#d7ccc8" letter-spacing="3">
      СТРАТЕГ • CHESS MASTER
    </text>
  </g>
</svg>