<svg xmlns="http://www.w3.org/2000/svg" viewBox="0 0 512 512" width="100%" height="100%">
  <defs>
    <linearGradient id="bgGrad" x1="0%" y1="0%" x2="100%" y2="100%">
      <stop offset="0%" stop-color="#14141e"/>
      <stop offset="50%" stop-color="#0b0b12"/>
      <stop offset="100%" stop-color="#050508"/>
    </linearGradient>
    <linearGradient id="borderGrad" x1="0%" y1="0%" x2="100%" y2="100%">
      <stop offset="0%" stop-color="#ffcdd2"/>
      <stop offset="50%" stop-color="#ef5350"/>
      <stop offset="100%" stop-color="#b71c1c"/>
    </linearGradient>
    <radialGradient id="glowGrad" cx="50%" cy="45%" r="55%">
      <stop offset="0%" stop-color="#ef5350" stop-opacity="0.38"/>
      <stop offset="60%" stop-color="#ef5350" stop-opacity="0.08"/>
      <stop offset="100%" stop-color="#ef5350" stop-opacity="0"/>
    </radialGradient>
    <filter id="neonGlow" x="-20%" y="-20%" width="140%" height="140%">
      <feGaussianBlur stdDeviation="6" result="blur"/>
      <feMerge>
        <feMergeNode in="blur"/>
        <feMergeNode in="SourceGraphic"/>
      </feMerge>
    </filter>
    <filter id="shadow" x="-10%" y="-10%" width="120%" height="120%">
      <feDropShadow dx="0" dy="8" stdDeviation="10" flood-color="#000" flood-opacity="0.75"/>
    </filter>
    
  </defs>

  <!-- Background -->
  <rect x="0" y="0" width="512" height="512" rx="32" fill="url(#bgGrad)"/>
  <circle cx="256" cy="230" r="180" fill="url(#glowGrad)"/>

  <!-- Subtle Cyber Grid -->
  <g opacity="0.12" stroke="#ef5350" stroke-width="1">
    <line x1="60" y1="120" x2="452" y2="120"/>
    <line x1="60" y1="200" x2="452" y2="200"/>
    <line x1="60" y1="280" x2="452" y2="280"/>
    <line x1="60" y1="360" x2="452" y2="360"/>
    <line x1="140" y1="60" x2="140" y2="420"/>
    <line x1="256" y1="60" x2="256" y2="420"/>
    <line x1="372" y1="60" x2="372" y2="420"/>
  </g>

  <!-- Character Illustration -->
  <g filter="url(#shadow)">
    
      <!-- Varya Master Huntress Archer -->
      <!-- Energy Arrow Aura -->
      <g transform="translate(100, 160) rotate(35)">
        <line x1="0" y1="0" x2="80" y2="0" stroke="#ef5350" stroke-width="4" filter="url(#neonGlow)"/>
        <polygon points="80,-8 95,0 80,8" fill="#ffffff" filter="url(#neonGlow)"/>
      </g>
      <!-- Quiver Arrows on Back -->
      <g transform="translate(370, 150) rotate(20)">
        <rect x="0" y="0" width="18" height="90" rx="4" fill="#4e342e" stroke="#ef5350" stroke-width="2"/>
        <polygon points="3,-15 9,-5 15,-15" fill="#ef5350"/>
        <polygon points="-3,-10 3,0 9,-10" fill="#ffffff"/>
      </g>

      <!-- Crimson Leather Archer Armor -->
      <path d="M 120 400 L 150 280 L 210 268 L 256 295 L 302 268 L 362 280 L 392 400 Z" fill="#3e2723"/>
      <!-- Crimson Tunic & Leather Straps -->
      <path d="M 170 275 L 210 268 L 256 380 L 155 380 Z" fill="#b71c1c" stroke="#ef5350" stroke-width="2"/>
      <path d="M 342 275 L 302 268 L 256 380 L 357 380 Z" fill="#b71c1c" stroke="#ef5350" stroke-width="2"/>
      <rect x="238" y="310" width="36" height="40" rx="4" fill="#5d4037" stroke="#ffd600" stroke-width="2"/>

      <!-- Neck & Collar -->
      <rect x="224" y="240" width="64" height="26" rx="4" fill="#3e2723"/>

      <!-- Face -->
      <ellipse cx="256" cy="185" rx="48" ry="54" fill="#f0d5c0"/>

      <!-- Sleek Dark Ponytail & Archer Hood -->
      <path d="M 202 165 C 202 105 310 105 310 165 L 316 195 C 300 135 285 125 256 125 C 227 125 212 135 196 195 Z" fill="#4a2c2a"/>
      <!-- Ponytail flowing out left -->
      <path d="M 204 150 Q 150 170 140 230 Q 160 210 200 175 Z" fill="#4a2c2a"/>
      <!-- Crimson Archer Bandana / Headband -->
      <path d="M 202 152 Q 256 166 310 152 L 312 164 Q 256 178 200 164 Z" fill="#ef5350" stroke="#b71c1c" stroke-width="1.5"/>

      <!-- Keen Sharpshooter Eyes -->
      <ellipse cx="232" cy="180" rx="8" ry="5" fill="#ffffff"/>
      <ellipse cx="280" cy="180" rx="8" ry="5" fill="#ffffff"/>
      <circle cx="233" cy="180" r="4" fill="#b71c1c"/>
      <circle cx="279" cy="180" r="4" fill="#b71c1c"/>
      <circle cx="234" cy="179" r="1.5" fill="#ffffff"/>
      <circle cx="280" cy="179" r="1.5" fill="#ffffff"/>

      <!-- Determined Lips -->
      <path d="M 244 218 Q 256 224 268 218" fill="none" stroke="#8d6e63" stroke-width="3" stroke-linecap="round"/>
    
  </g>

  <!-- Arcade Tech Frame -->
  <rect x="18" y="18" width="476" height="476" rx="24" fill="none" stroke="#b71c1c" stroke-width="3" opacity="0.6"/>
  <rect x="24" y="24" width="464" height="464" rx="20" fill="none" stroke="url(#borderGrad)" stroke-width="3.5"/>

  <!-- Corner Tech Brackets -->
  <g stroke="#ffcdd2" stroke-width="4" fill="none" filter="url(#neonGlow)">
    <path d="M 28 64 L 28 32 L 64 32"/>
    <path d="M 448 32 L 484 32 L 484 64"/>
    <path d="M 28 448 L 28 480 L 64 480"/>
    <path d="M 448 480 L 484 480 L 484 448"/>
  </g>

  <!-- Tech Dots / Accents -->
  <circle cx="36" cy="36" r="3" fill="#ffcdd2"/>
  <circle cx="476" cy="36" r="3" fill="#ffcdd2"/>
  <circle cx="36" cy="476" r="3" fill="#ffcdd2"/>
  <circle cx="476" cy="476" r="3" fill="#ffcdd2"/>

  <!-- Bottom Name Banner -->
  <g transform="translate(256, 436)" filter="url(#shadow)">
    <!-- Banner Plate -->
    <path d="M -160 -24 L 160 -24 L 140 22 L -140 22 Z" fill="#0c0c16" stroke="#ef5350" stroke-width="2.5"/>
    <path d="M -152 -20 L 152 -20 L 134 18 L -134 18 Z" fill="none" stroke="#ffcdd2" stroke-width="1" opacity="0.4"/>
    <!-- Hero Name -->
    <text x="0" y="-1" text-anchor="middle" font-family="'Russo One', 'Impact', sans-serif" font-size="24" font-weight="900" fill="#ffffff" letter-spacing="2">
      VARYA
    </text>
    <!-- Archetype / Style Subtitle -->
    <text x="0" y="15" text-anchor="middle" font-family="'Exo 2', 'Arial', sans-serif" font-size="11" font-weight="800" fill="#ffcdd2" letter-spacing="3">
      ОХОТНИЦА • ARCHER
    </text>
  </g>
</svg>